<svg xmlns="http://www.w3.org/2000/svg" width="91.761" height="106.86" viewBox="0 0 91.761 106.86">
  <g id="Group_15959" data-name="Group 15959" transform="translate(-167.191 -185.3)">
    <path id="Path_11025" data-name="Path 11025" d="M378.264,110.2c-3.83,0-11.025.3-20.9.3-8.471,0-17.827-.147-22.924-.443v3.021c9.517.441,11.285,1.988,11.285,12.979V140.1s21.307-18.292,25.545-21.532a80.082,80.082,0,0,0,9.054-8.337C379.65,110.216,378.971,110.2,378.264,110.2Z" transform="translate(-167.253 75.246)" fill="#f68d2f"/>
    <path id="Path_11026" data-name="Path 11026" d="M388.252,160.667v-.294c21.068-3.9,30.143-15.838,30.143-26.519,0-12.627-10.164-21.849-30.556-23.454-.236,4.6-1.37,13.008-8,19.461-10.358,10.107-17.312,12.67-17.665,20.465a6.6,6.6,0,0,0,.117,1.133v.06a6.085,6.085,0,0,0,2.844,4.39,10.8,10.8,0,0,0,4.612.972s.1,0,1.061.015c.176-.015.368-.015.545-.015.236,0,.5-.015.8-.029l.015-.015c.353-.015.737-.06,1.193-.1a7.576,7.576,0,0,0,6.777-6.217c-2.887,2.357-11.374,2.872-12.169-2.048s2.224-6.57,12.817-15.852a30.084,30.084,0,0,0,10.194-21.834c6.822,9.384,4.17,18.357,3.963,21.907s5.392,6.321,5.392,8.4c0,1.016-3.815,2.386-3.815,2.386v3.079l-2.137.825v2.092c-3.8,1.312-2.358,6.409-3.4,7.587S380,156.144,380,156.144a11.918,11.918,0,0,0-6.247,6.527H376.1c17.9,0,25.045,8.914,25.045,24.236,0,16.956-6.261,26.46-20.993,26.46-8.633,0-10.4-1.99-10.4-12.523V158.517a62.233,62.233,0,0,0-7.764,6.615c-4.125,4.272-12.493,13.127-16.25,23.409v12.3c0,10.976-1.694,12.523-11.286,12.964v3.021c5.1-.3,14.306-.443,23.22-.443,12.817,0,22.186.443,26.9.443,25.855,0,41.635-10.239,41.635-29.259C426.2,175.341,416.48,162.819,388.252,160.667Z" transform="translate(-167.252 75.331)" fill="#f68d2f"/>
    <path id="Path_11027" data-name="Path 11027" d="M384.333,110.705s.939,10.394-12.658,21.183-32.246,26.537-34.035,40.67c0,0-4.114-14.848,6.44-25.94S380.755,117.37,384.333,110.705Z" transform="translate(-166.659 75.407)" fill="#f68d2f"/>
    <path id="Path_11028" data-name="Path 11028" d="M342.344,177.972c-6.792-12.8,8.839-29.053,14.512-34.342a9.606,9.606,0,0,0,3.992,6.718C341.651,166.657,342.344,177.972,342.344,177.972Z" transform="translate(-165.718 83.529)" fill="#f68d2f"/>
  </g>
</svg>
