<svg xmlns="http://www.w3.org/2000/svg" width="243.333" height="128.823" viewBox="0 0 243.333 128.823">
  <g id="Group_15960" data-name="Group 15960" transform="translate(-581.24 -265.439)">
    <g id="Group_15959" data-name="Group 15959" transform="translate(414.049 80.139)">
      <path id="Path_11025" data-name="Path 11025" d="M378.264,110.2c-3.83,0-11.025.3-20.9.3-8.471,0-17.827-.147-22.924-.443v3.021c9.517.441,11.285,1.988,11.285,12.979V140.1s21.307-18.292,25.545-21.532a80.082,80.082,0,0,0,9.054-8.337C379.65,110.216,378.971,110.2,378.264,110.2Z" transform="translate(-167.253 75.246)" fill="#f68d2f"/>
      <path id="Path_11026" data-name="Path 11026" d="M388.252,160.667v-.294c21.068-3.9,30.143-15.838,30.143-26.519,0-12.627-10.164-21.849-30.556-23.454-.236,4.6-1.37,13.008-8,19.461-10.358,10.107-17.312,12.67-17.665,20.465a6.6,6.6,0,0,0,.117,1.133v.06a6.085,6.085,0,0,0,2.844,4.39,10.8,10.8,0,0,0,4.612.972s.1,0,1.061.015c.176-.015.368-.015.545-.015.236,0,.5-.015.8-.029l.015-.015c.353-.015.737-.06,1.193-.1a7.576,7.576,0,0,0,6.777-6.217c-2.887,2.357-11.374,2.872-12.169-2.048s2.224-6.57,12.817-15.852a30.084,30.084,0,0,0,10.194-21.834c6.822,9.384,4.17,18.357,3.963,21.907s5.392,6.321,5.392,8.4c0,1.016-3.815,2.386-3.815,2.386v3.079l-2.137.825v2.092c-3.8,1.312-2.358,6.409-3.4,7.587S380,156.144,380,156.144a11.918,11.918,0,0,0-6.247,6.527H376.1c17.9,0,25.045,8.914,25.045,24.236,0,16.956-6.261,26.46-20.993,26.46-8.633,0-10.4-1.99-10.4-12.523V158.517a62.233,62.233,0,0,0-7.764,6.615c-4.125,4.272-12.493,13.127-16.25,23.409v12.3c0,10.976-1.694,12.523-11.286,12.964v3.021c5.1-.3,14.306-.443,23.22-.443,12.817,0,22.186.443,26.9.443,25.855,0,41.635-10.239,41.635-29.259C426.2,175.341,416.48,162.819,388.252,160.667Z" transform="translate(-167.252 75.331)" fill="#f68d2f"/>
      <path id="Path_11027" data-name="Path 11027" d="M384.333,110.705s.939,10.394-12.658,21.183-32.246,26.537-34.035,40.67c0,0-4.114-14.848,6.44-25.94S380.755,117.37,384.333,110.705Z" transform="translate(-166.659 75.407)" fill="#f68d2f"/>
      <path id="Path_11028" data-name="Path 11028" d="M342.344,177.972c-6.792-12.8,8.839-29.053,14.512-34.342a9.606,9.606,0,0,0,3.992,6.718C341.651,166.657,342.344,177.972,342.344,177.972Z" transform="translate(-165.718 83.529)" fill="#f68d2f"/>
    </g>
    <path id="Path_11078" data-name="Path 11078" d="M-46.616-18.832a7.61,7.61,0,0,0,1.569-4.851q0-1.926-1.5-1.641a34.565,34.565,0,0,0-9.987,6.991A87.659,87.659,0,0,1-46.616-18.832Zm4.351-7.989a5.2,5.2,0,0,1,.071.856q0,3.5-3.567,7.133,1.284.071,2.5.143.357,0,.143.285a.678.678,0,0,1-.571.285,58.456,58.456,0,0,0-15.479,3,29.23,29.23,0,0,0-3.281,6.135,11.348,11.348,0,0,0-.856,4.066q0,3.5,2.853,3.5A8.629,8.629,0,0,0-56.6-2.639q8.56-4.423,17.12-13.981a.584.584,0,0,1,.357-.214q.785,0-.5,1.5-7.847,9.273-14.2,13.553A12.039,12.039,0,0,1-60.6.143,10.336,10.336,0,0,1-66.59-1.569a5.473,5.473,0,0,1-2.5-4.779,6.513,6.513,0,0,1,.214-1.569q1.427-6.777,8.631-13.767a41.377,41.377,0,0,1,13.767-9.273,2.215,2.215,0,0,1,2.711.5A8.245,8.245,0,0,1-42.265-26.821ZM-1.32-17.548Q-2.6-15.979-5.207-12.983t-7.954,8.631Q-18.083.357-21.935.357q-5.35,0-4.851-5.35.214-3,3.424-9.059A70.509,70.509,0,0,1-33.6-3.1Q-37.7.143-40.7.143q-4.351,0-4.351-5.493,0-5.564,7.276-13.339A75.99,75.99,0,0,1-25.716-29.033a9.021,9.021,0,0,1,4.922-1.926q2.425,0,5.849,3,.713-1.141,1.284-1.141a14.627,14.627,0,0,1,4.03.816q2.6.816,2.176,1.242A80.241,80.241,0,0,0-20.294-7.108a7.832,7.832,0,0,0-.642,2.768q0,1.986,1.855,1.986,2.14,0,5.207-2.828A118.846,118.846,0,0,0-2.033-17.907q.357-.426.642-.212Q-1.034-17.833-1.32-17.548Zm-14.2-9.487q-.927-.5-3,.571A53.363,53.363,0,0,0-39.2-6.777,6.873,6.873,0,0,0-40.41-3.424q0,1.07,1,1.07A7.288,7.288,0,0,0-36.2-3.638q7.49-4.423,18.4-19.831Q-17.013-24.753-15.515-27.035ZM31.28-17.548Q30-15.979,27.285-12.911q-6.063,6.991-7.7,8.417Q13.874.785,9.523.285,5.885-.143,5.885-4.137a10.279,10.279,0,0,1,.642-3.5Q1.32.285-3.1.285a4.257,4.257,0,0,1-3.246-1.42A5.378,5.378,0,0,1-7.74-4.755q0-4.26,3.353-10.933,2.925-5.183,5.849-10.294,1.07-2.059.285-2.626a8.188,8.188,0,0,1,3.567-.781q4.351,0,4.351,2.354a2.412,2.412,0,0,1-.642,1.5A85.656,85.656,0,0,0-2.1-6.991a8.3,8.3,0,0,0-.713,2.925q0,1.926,1.783,1.783Q2.39-2.425,9.1-13.625q3.139-5.35,9.131-15.337.071-.143.642-.143a14.287,14.287,0,0,1,4.066.82q2.568.82,2.211,1.248A78.043,78.043,0,0,0,12.237-6.991a7.223,7.223,0,0,0-.717,2.782,1.737,1.737,0,0,0,1.933,2q3.365,0,13.173-11.128Q28.7-15.693,30.492-17.9q.43-.428.717-.214A.4.4,0,0,1,31.28-17.548ZM54.249-38.805q-3.281,1.141-10.415,11.128h4.993l-.713,1.07H43.05q-9.487,13.339-12.2,19.759a5.772,5.772,0,0,0-.642,2.425q0,2.211,2.354,2.211,3.353,0,13.125-11.128,2.069-2.354,3.852-4.565.357-.428.713-.214a.4.4,0,0,1,.071.571q-1.284,1.569-3.995,4.637-6.063,6.919-7.347,8.132Q33.634.428,29.71.428q-4.851,0-4.851-4.28a14.637,14.637,0,0,1,1.5-5.421,160.3,160.3,0,0,1,9.63-17.334H31.85l.713-1.07H36.63q2.354-3.923,6.135-9.773Q45.618-41.3,47.829-41.3a8.462,8.462,0,0,1,2.211.357Q54.249-39.8,54.249-38.805Zm23.469,9.7q-5.065,0-7.24,4.958A93.506,93.506,0,0,0,66.233-11.7Q63.879-3.067,62.952-.642a37.6,37.6,0,0,1-5.279,9.773q-5.849,7.561-16.906,7.7-5.279.143-6.705-3.852l1-.214q.713,2.711,4.066,2.711a10.47,10.47,0,0,0,4.851-1.213Q48.9,11.7,54.463,3.281A199.039,199.039,0,0,0,65.948-17.334,125.356,125.356,0,0,1,58.172-6.777Q53.393-.927,51.4-.071a5.023,5.023,0,0,1-2.14.5A4.248,4.248,0,0,1,46.01-1a5.419,5.419,0,0,1-1.391-3.638q0-4.28,3.353-10.985,2.925-5.207,5.849-10.343,1.07-2.069.285-2.639a8.159,8.159,0,0,1,3.567-.785q4.351,0,4.351,2.354a2.412,2.412,0,0,1-.642,1.5A85.656,85.656,0,0,0,50.254-6.991a8.3,8.3,0,0,0-.713,2.925q0,1.926,1.783,1.783Q54.606-2.425,65.377-18.4q2.14-3.21,4.565-7.347,4.137-7.2,6.634-7.062t2.5,2.425Q79.073-29.1,77.718-29.1Z" transform="translate(745.5 359.262)" fill="#fff"/>
    <g id="Group_15945" data-name="Group 15945" transform="translate(709.644 369.16)">
      <rect id="Rectangle_1" data-name="Rectangle 1" width="67" height="25" rx="5" transform="translate(-0.144 0.102)" fill="#f68d2f"/>
      <path id="Path_11014" data-name="Path 11014" d="M6.218-22.363a3.912,3.912,0,0,0,2.964-1.349,3.219,3.219,0,0,0,.686-1.88,2.674,2.674,0,0,0-.6-1.88,19.22,19.22,0,0,0-2.566-2.013,22.422,22.422,0,0,1-2.256-1.7,2.026,2.026,0,0,1-.288-.818,1.871,1.871,0,0,1,.487-1.172,2.153,2.153,0,0,1,1.77-.553A2.371,2.371,0,0,1,8.585-31.9l1.128-.243a3.211,3.211,0,0,0-1.195-2.035,3.372,3.372,0,0,0-2.1-.73,3.131,3.131,0,0,0-2.61.929,3.029,3.029,0,0,0-.841,1.991A2.66,2.66,0,0,0,3.475-30.5a12.544,12.544,0,0,0,2.544,1.969c.044,0,.31.265.376.288a17.947,17.947,0,0,1,2.013,1.526,1.574,1.574,0,0,1,.31,1.04,2.242,2.242,0,0,1-.42,1.217,2.64,2.64,0,0,1-2.079.929A2.485,2.485,0,0,1,3.63-25.5l-1.15.243A3.388,3.388,0,0,0,3.5-23.337,3.9,3.9,0,0,0,6.218-22.363ZM18.3-34.8,14.2-22.43h1.239c.4-1.283.885-2.743,1.327-4H21l1.305,4h1.261L19.447-34.8Zm-1.128,7.167c.376-1.106.664-2.079,1.018-3.141.2-.619.487-1.349.686-1.991a1.63,1.63,0,0,1,.088.31c.575,1.681,1.04,3.141,1.615,4.822ZM30.906-34.8,26.813-22.43h1.239c.4-1.283.885-2.743,1.327-4H33.6l1.305,4H36.17L32.056-34.8Zm-1.128,7.167c.376-1.106.664-2.079,1.018-3.141.2-.619.487-1.349.686-1.991a1.63,1.63,0,0,1,.088.31c.575,1.681,1.04,3.141,1.615,4.822Zm14.379,5.265a3.912,3.912,0,0,0,2.964-1.349,3.219,3.219,0,0,0,.686-1.88,2.674,2.674,0,0,0-.6-1.88,19.22,19.22,0,0,0-2.566-2.013,22.422,22.422,0,0,1-2.256-1.7,2.026,2.026,0,0,1-.288-.818,1.871,1.871,0,0,1,.487-1.172,2.153,2.153,0,0,1,1.77-.553A2.371,2.371,0,0,1,46.523-31.9l1.128-.243a3.211,3.211,0,0,0-1.195-2.035,3.372,3.372,0,0,0-2.1-.73,3.131,3.131,0,0,0-2.61.929,3.029,3.029,0,0,0-.841,1.991,2.66,2.66,0,0,0,.509,1.482,12.544,12.544,0,0,0,2.544,1.969c.044,0,.31.265.376.288a17.947,17.947,0,0,1,2.013,1.526,1.574,1.574,0,0,1,.31,1.04,2.242,2.242,0,0,1-.42,1.217,2.64,2.64,0,0,1-2.079.929A2.485,2.485,0,0,1,41.568-25.5l-1.15.243a3.388,3.388,0,0,0,1.018,1.925A3.9,3.9,0,0,0,44.156-22.363Z" transform="translate(8.336 40.988)" fill="#fff"/>
    </g>
  </g>
</svg>
